<svg id="Door" xmlns="http://www.w3.org/2000/svg" width="192" height="192" viewBox="0 0 192 192">
  <defs>
    <style>
      .cls-1, .cls-17 {
        fill: #d0d1d0;
      }

      .cls-1 {
        opacity: 0.4;
      }

      .cls-16, .cls-18, .cls-2 {
        fill: #ececec;
      }

      .cls-13, .cls-19, .cls-2, .cls-3, .cls-7 {
        stroke: #fff;
      }

      .cls-2 {
        stroke-width: 3px;
      }

      .cls-10, .cls-12, .cls-13, .cls-14, .cls-16, .cls-17, .cls-19, .cls-2, .cls-20, .cls-21, .cls-22, .cls-23, .cls-24, .cls-25, .cls-26, .cls-27, .cls-28, .cls-3, .cls-30, .cls-31, .cls-32, .cls-33, .cls-5, .cls-7, .cls-8 {
        fill-rule: evenodd;
      }

      .cls-10, .cls-13, .cls-19, .cls-20, .cls-21, .cls-22, .cls-23, .cls-24, .cls-25, .cls-26, .cls-27, .cls-3, .cls-30 {
        fill: none;
      }

      .cls-10, .cls-3 {
        stroke-width: 2px;
      }

      .cls-4 {
        fill: #b7b7b7;
      }

      .cls-5 {
        opacity: 0.1;
      }

      .cls-6 {
        opacity: 0.2;
      }

      .cls-7 {
        fill: #abe0f9;
      }

      .cls-22, .cls-7 {
        stroke-width: 8px;
      }

      .cls-8 {
        fill: #769fb0;
      }

      .cls-9 {
        opacity: 0.5;
      }

      .cls-10 {
        stroke: #181718;
      }

      .cls-11, .cls-32 {
        fill: #fff;
      }

      .cls-12, .cls-29 {
        fill: #ea2d2a;
      }

      .cls-13 {
        stroke-width: 10px;
      }

      .cls-14 {
        opacity: 0.3;
      }

      .cls-15 {
        fill: #969696;
      }

      .cls-19, .cls-20, .cls-21, .cls-22, .cls-23, .cls-24, .cls-25, .cls-26, .cls-27, .cls-30 {
        stroke-linecap: round;
      }

      .cls-19, .cls-24, .cls-25, .cls-26, .cls-27, .cls-30 {
        stroke-width: 4px;
      }

      .cls-20 {
        stroke: #db8e27;
      }

      .cls-20, .cls-21, .cls-22, .cls-23, .cls-25, .cls-26, .cls-27 {
        stroke-linejoin: round;
      }

      .cls-20, .cls-23 {
        stroke-width: 32px;
      }

      .cls-21 {
        stroke: #d14c27;
        stroke-width: 34px;
      }

      .cls-22 {
        stroke: #fdbe11;
      }

      .cls-23 {
        stroke: #f49d22;
      }

      .cls-24 {
        stroke: #811618;
      }

      .cls-25 {
        stroke: #d32827;
      }

      .cls-26 {
        stroke: #a92023;
      }

      .cls-27 {
        stroke: #931d1e;
      }

      .cls-28 {
        fill: #d32927;
      }

      .cls-30 {
        stroke: #ea2d2a;
      }

      .cls-31 {
        fill: #d32827;
      }

      .cls-33 {
        opacity: 0.15;
      }
    </style>
  </defs>
  <ellipse id="Shadow" class="cls-1" cx="207.5" cy="371.5" rx="187.5" ry="32.5"/>
  <path id="Sidewalk" class="cls-2" d="M136,406H280l-30-51H164Z"/>
  <path class="cls-3" d="M154,369H259"/>
  <path id="Shape_695_copy" data-name="Shape 695 copy" class="cls-3" d="M145,386H270"/>
  <rect id="Building_Base" data-name="Building Base" class="cls-4" x="58" y="183" width="297" height="173"/>
  <rect id="Building_Top_Middle" data-name="Building Top Middle" class="cls-4" x="58" y="68" width="297" height="47"/>
  <path id="Building_Top_Middle_Shadow" data-name="Building Top Middle Shadow" class="cls-5" d="M206.5,39C260.348,39,304,55.789,304,76.5S260.348,114,206.5,114,109,97.211,109,76.5,152.652,39,206.5,39ZM58,74L355,93V68H58v6Z"/>
  <rect id="Building_Top" data-name="Building Top" class="cls-4" x="50" y="44" width="313" height="24"/>
  <rect id="Building_Top_Shadow" data-name="Building Top Shadow" class="cls-6" x="50" y="53" width="313" height="6"/>
  <path id="Window_Left" data-name="Window Left" class="cls-7" d="M72,173h77V306H72V173Z"/>
  <path id="today_s_special" data-name="today’s special" class="cls-8" d="M88.712,228.936h2.071v10.8h1.981v-10.8h2.071v-1.8H88.712v1.8Zm8.8,1.1a1.045,1.045,0,1,1,2.053,0v6.806a1.045,1.045,0,1,1-2.053,0v-6.806Zm-1.981,6.68c0,2.016,1.062,3.169,3.007,3.169s3.007-1.153,3.007-3.169v-6.554c0-2.017-1.062-3.169-3.007-3.169s-3.007,1.152-3.007,3.169v6.554Zm7.29,3.025h3.133c1.981,0,2.953-1.1,2.953-3.115v-6.374c0-2.017-.972-3.115-2.953-3.115h-3.133v12.6Zm3.1-10.8a0.982,0.982,0,0,1,1.008,1.225v6.554a0.981,0.981,0,0,1-1.008,1.224h-1.116v-9h1.116Zm8.622-1.8h-2.9l-2.017,12.6h1.819l0.342-2.287h2.43l0.342,2.287h2ZM113,229.368l0.954,6.374h-1.908Zm5.454,10.372h1.98v-4.178l2.5-8.426h-1.89l-1.513,5.744-1.512-5.744h-2.071l2.5,8.426v4.178Zm6.029-10.7-0.522,1.8h0.81l0.865-2v-1.71h-1.909v1.908h0.756Zm2.25,1.117c0,3.6,3.871,4.087,3.871,6.68a1.042,1.042,0,1,1-2.052,0v-0.9h-1.873v0.775c0,2.016,1.008,3.169,2.953,3.169s2.953-1.153,2.953-3.169c0-3.6-3.871-4.088-3.871-6.68,0-.9.36-1.243,0.99-1.243s0.99,0.342.99,1.243v0.522h1.873v-0.4c0-2.017-.991-3.169-2.917-3.169S126.728,228.144,126.728,230.161Zm-37.448,18c0,3.6,3.871,4.087,3.871,6.68a1.042,1.042,0,1,1-2.053,0v-0.9H89.226v0.775c0,2.016,1.008,3.169,2.953,3.169s2.953-1.153,2.953-3.169c0-3.6-3.871-4.088-3.871-6.68,0-.9.36-1.243,0.99-1.243s0.99,0.342.99,1.243v0.522h1.873v-0.4c0-2.017-.99-3.169-2.917-3.169S89.28,246.144,89.28,248.161Zm9.9-3.025H96.264v12.6h1.981V253H99.18c1.981,0,2.953-1.1,2.953-3.115v-1.638C102.133,246.234,101.161,245.136,99.18,245.136Zm0,1.8c0.63,0,.973.288,0.973,1.189v1.89c0,0.9-.342,1.189-0.973,1.189H98.244v-4.268H99.18Zm5.85,0h3.421v-1.8h-5.4v12.6h5.4v-1.8H105.03v-3.691h2.719v-1.8H105.03v-3.511Zm8.515,6.1v1.8a1.042,1.042,0,1,1-2.053,0v-6.806a1.045,1.045,0,1,1,2.053,0v1.35h1.872v-1.224c0-2.017-1.008-3.169-2.953-3.169s-2.953,1.152-2.953,3.169v6.554c0,2.016,1.009,3.169,2.953,3.169s2.953-1.153,2.953-3.169V253.04h-1.872Zm3.076,4.7H118.6v-12.6h-1.981v12.6Zm7.813-12.6h-2.9l-2.016,12.6h1.818l0.342-2.287h2.431l0.342,2.287h2Zm-1.548,2.232,0.954,6.374h-1.908Zm4.481,10.372h5.239v-1.8h-3.258v-10.8h-1.981v12.6Z"/>
  <path id="Window_Right" data-name="Window Right" class="cls-7" d="M264,173h77V306H264V173Z"/>
  <path id="hot_dogs_brats" data-name="hot dogs &amp; brats" class="cls-8" d="M279.363,234.338h2.251v5.4h2.017v-12.6h-2.017v5.4h-2.251v-5.4h-1.98v12.6h1.98v-5.4Zm7.524-4.3a1.045,1.045,0,1,1,2.053,0v6.806a1.045,1.045,0,1,1-2.053,0v-6.806Zm-1.981,6.68c0,2.016,1.063,3.169,3.007,3.169s3.007-1.153,3.007-3.169v-6.554c0-2.017-1.062-3.169-3.007-3.169s-3.007,1.152-3.007,3.169v6.554Zm6.714-7.779h2.071v10.8h1.98v-10.8h2.071v-1.8H291.62v1.8Zm9.774,10.8h3.133c1.981,0,2.953-1.1,2.953-3.115v-6.374c0-2.017-.972-3.115-2.953-3.115h-3.133v12.6Zm3.1-10.8a0.982,0.982,0,0,1,1.008,1.225v6.554a0.981,0.981,0,0,1-1.008,1.224h-1.116v-9h1.116Zm6.066,1.1a1.045,1.045,0,1,1,2.052,0v6.806a1.045,1.045,0,1,1-2.052,0v-6.806Zm-1.981,6.68c0,2.016,1.062,3.169,3.007,3.169s3.007-1.153,3.007-3.169v-6.554c0-2.017-1.063-3.169-3.007-3.169s-3.007,1.152-3.007,3.169v6.554Zm10.261-2.2h0.9v2.323a1.042,1.042,0,1,1-2.053,0v-6.806a1.045,1.045,0,1,1,2.053,0v1.35h1.873v-1.224c0-2.017-1.009-3.169-2.953-3.169s-2.953,1.152-2.953,3.169v6.554c0,2.016,1.008,3.169,2.953,3.169s2.953-1.153,2.953-3.169v-4h-2.773v1.8Zm3.8-4.357c0,3.6,3.871,4.087,3.871,6.68a1.042,1.042,0,1,1-2.053,0v-0.9H322.58v0.775c0,2.016,1.008,3.169,2.953,3.169s2.953-1.153,2.953-3.169c0-3.6-3.872-4.088-3.872-6.68,0-.9.361-1.243,0.991-1.243s0.99,0.342.99,1.243v0.522h1.873v-0.4c0-2.017-.991-3.169-2.917-3.169S322.634,228.144,322.634,230.161Zm-41.4,23.563V255c0,1.854.738,2.881,2.2,2.881a1.873,1.873,0,0,0,1.837-1.135,3.011,3.011,0,0,0,.18.991h2.017a3.718,3.718,0,0,1-.216-1.531v-4.141h0.522v-1.8h-0.522v-1.4h-1.981v1.4H284.4a1.092,1.092,0,0,1-1.189-1.332v-0.774a0.982,0.982,0,0,1,1.009-1.225h2.232v-1.8h-2.268c-1.981,0-2.953,1.1-2.953,3.115v0.234a2.47,2.47,0,0,0,1.368,2.593A2.586,2.586,0,0,0,281.235,253.724Zm1.98,1.117V253.67c0-1.17.4-1.6,1.3-1.6h0.756v2.917a0.967,0.967,0,0,1-1.026,1.1A1.007,1.007,0,0,1,283.215,254.841Zm11.232-9.705h-2.989v12.6h3.115a2.679,2.679,0,0,0,3.007-2.989v-1.027c0-1.332-.414-2.286-1.476-2.7a2.477,2.477,0,0,0,1.278-2.539v-0.45C297.382,246.09,296.5,245.136,294.447,245.136Zm-0.126,6.932c0.9,0,1.279.36,1.279,1.53v1.1c0,0.936-.36,1.242-1.027,1.242h-1.134v-3.871h0.882Zm0.072-5.132c0.7,0,1.009.4,1.009,1.3v0.7a1.093,1.093,0,0,1-1.189,1.332h-0.774v-3.331h0.954Zm10.531,10.8a3.718,3.718,0,0,1-.216-1.531v-1.944c0-1.315-.324-2.269-1.314-2.683a2.513,2.513,0,0,0,1.3-2.557v-0.99c0-1.945-.882-2.9-2.935-2.9h-2.989v12.6h1.981v-5.132h0.684c0.9,0,1.3.432,1.3,1.6v1.98a3.857,3.857,0,0,0,.181,1.549h2.016Zm-3.223-10.8c0.7,0,1.008.4,1.008,1.3v1.242a1.093,1.093,0,0,1-1.188,1.333h-0.774v-3.872H301.7Zm8.694-1.8h-2.9l-2.017,12.6H307.3l0.342-2.287h2.43l0.342,2.287h2Zm-1.548,2.232,0.954,6.374h-1.908Zm3.221-.432h2.071v10.8h1.98v-10.8h2.071v-1.8h-6.122v1.8Zm6.732,1.225c0,3.6,3.871,4.087,3.871,6.68a1.042,1.042,0,1,1-2.053,0v-0.9h-1.872v0.775c0,2.016,1.008,3.169,2.953,3.169s2.953-1.153,2.953-3.169c0-3.6-3.872-4.088-3.872-6.68,0-.9.361-1.243,0.991-1.243s0.99,0.342.99,1.243v0.522h1.873v-0.4c0-2.017-.991-3.169-2.917-3.169S318.8,246.144,318.8,248.161Z"/>
  <path id="Door-2" data-name="Door" class="cls-7" d="M168,173h78V336H168V173Z"/>
  <g id="Open_SIgn" data-name="Open SIgn" class="cls-9">
    <path class="cls-10" d="M193,215l13.953-20L221,215"/>
    <rect class="cls-11" x="185" y="214" width="44" height="20"/>
    <path id="OPEN" class="cls-12" d="M193.253,228.056c2.711,0,4.222-1.655,4.222-4.366s-1.367-4.461-4.306-4.461a4.1,4.1,0,0,0-4.21,4.377C188.959,226.605,190.746,228.056,193.253,228.056Zm0-1.883c-0.767,0-1.331-1-1.331-2.567,0-1.487.5-2.542,1.235-2.53,0.924,0,1.319,1.163,1.319,2.614C194.476,225.177,194.009,226.173,193.253,226.173Zm5.306-6.717v1.572h0.672v5.229h-0.672v1.583h3.862v-1.583H201.69V224.4H202.6c1.715,0,3.154-.792,3.154-2.375,0-1.367-.527-2.567-3.31-2.567h-3.886Zm3.131,1.56h0.6a1,1,0,0,1,1.116,1.091,1.019,1.019,0,0,1-1.176,1H201.69v-2.086Zm5.149-1.56v1.584H207.6v5.205h-0.756v1.595h7.232v-2.711H212v1.116h-1.919V224.29h2.279V222.7h-2.279V221.04H212v1.067h2.075v-2.651h-7.232ZM224.462,221v-1.548h-3.61V221h0.816v2.854l-2.939-4.4h-3.442V221h0.7v5.289h-0.708v1.547h3.682v-1.547h-0.923V223.27l3.058,4.57h2.579V221h0.791Z"/>
  </g>
  <path id="Door_Divider" data-name="Door Divider" class="cls-13" d="M170,259h72"/>
  <path id="Awning_Below_Shadow" data-name="Awning Below Shadow" class="cls-14" d="M58,197l297,17V183H58v14Z"/>
  <rect id="Door_Mortar" data-name="Door Mortar" class="cls-15" x="164" y="336" width="86" height="20"/>
  <path id="Door_Ledge" data-name="Door Ledge" class="cls-16" d="M229,335h11v22H229V335Zm-28,0h11v22H201V335Zm-28,0h11v22H173V335Z"/>
  <path id="Offcolor_Bricks" data-name="Offcolor Bricks" class="cls-17" d="M187,335h11v22H187V335Zm-28,0h11v22H159V335Zm56,0h11v22H215V335Zm28,0h11v22H243V335Z"/>
  <rect id="Door_Mortar-2" data-name="Door Mortar" class="cls-15" x="260" y="296" width="86" height="20"/>
  <path id="Door_Ledge-2" data-name="Door Ledge" class="cls-16" d="M325,295h11v22H325V295Zm-28,0h11v22H297V295Zm-28,0h11v22H269V295Z"/>
  <path id="Offcolor_Bricks-2" data-name="Offcolor Bricks" class="cls-17" d="M283,295h11v22H283V295Zm-28,0h11v22H255V295Zm56,0h11v22H311V295Zm28,0h11v22H339V295Z"/>
  <rect id="Door_Mortar-3" data-name="Door Mortar" class="cls-15" x="68" y="296" width="86" height="20"/>
  <path id="Door_Ledge-3" data-name="Door Ledge" class="cls-16" d="M133,295h11v22H133V295Zm-28,0h11v22H105V295Zm-28,0H88v22H77V295Z"/>
  <path id="Offcolor_Bricks-3" data-name="Offcolor Bricks" class="cls-17" d="M91,295h11v22H91V295Zm-28,0H74v22H63V295Zm56,0h11v22H119V295Zm28,0h11v22H147V295Z"/>
  <ellipse id="Sign-2" data-name="Sign" class="cls-18" cx="206.5" cy="68.5" rx="97.5" ry="39.5"/>
  <path id="Sign_Decor" data-name="Sign Decor" class="cls-19" d="M206.5,41.871c43.907,0,77.64,10.694,77.64,26.193S250.407,96.129,206.5,96.129s-77.64-12.565-77.64-28.065S162.593,41.871,206.5,41.871Z"/>
  <g id="Hot_Dog" data-name="Hot Dog">
    <path id="Shape_730_copy" data-name="Shape 730 copy" class="cls-20" d="M161.021,23.824S176.538,41.2,208.262,41.2s44.779-17.379,44.779-17.379"/>
    <path id="Shape_730_copy_2" data-name="Shape 730 copy 2" class="cls-21" d="M152,31.5s18.549,21,56.471,21S262,31.5,262,31.5"/>
    <path class="cls-22" d="M168.591,26.58s-0.105,11.168,10.281,6.58,9.229-.912,12.238,5.5,8.484,9.728,12.238,5.5,3.844-9.586,7.7-7.325,5.624,11.008,11.363,8.538,0.8-13.964,6.539-11.28,10.5,8.276,11.239,5.54-1.033-10.8,4.541-11.2"/>
    <path class="cls-23" d="M152,48s18.549,24,56.471,24S262,48,262,48"/>
  </g>
  <path id="Ellipse_663_copy_3" data-name="Ellipse 663 copy 3" class="cls-24" d="M307.452,344.468c5.823-1.477,16.582-2.468,28.892-2.468,11.708,0,22.014.9,28,2.255"/>
  <path class="cls-25" d="M298,320s10,13.713,10,27.188C308,360.205,298,373,298,373"/>
  <path id="Shape_665_copy_6" data-name="Shape 665 copy 6" class="cls-26" d="M298,320a64.675,64.675,0,0,1,7.214,13.633"/>
  <path id="Shape_665_copy" data-name="Shape 665 copy" class="cls-25" d="M315.538,317s6.924,12.419,6.924,24.623c0,11.789-6.924,23.377-6.924,23.377"/>
  <path id="Shape_665_copy_4" data-name="Shape 665 copy 4" class="cls-27" d="M315.538,317s6.924,12.419,6.924,24.623"/>
  <path id="Shape_665_copy_2" data-name="Shape 665 copy 2" class="cls-25" d="M375.209,319.95s-10.062,13.726-10.062,27.214c0,13.029,10.062,25.836,10.062,25.836"/>
  <path id="Shape_665_copy_5" data-name="Shape 665 copy 5" class="cls-26" d="M375.209,319.95a64.606,64.606,0,0,0-7.323,13.816"/>
  <path id="Shape_665_copy_2-2" data-name="Shape 665 copy 2" class="cls-25" d="M357.563,316.948s-6.966,12.431-6.966,24.646c0,11.8,6.966,23.4,6.966,23.4"/>
  <path id="Shape_665_copy_3" data-name="Shape 665 copy 3" class="cls-27" d="M357.563,316.948s-6.966,12.431-6.966,24.646"/>
  <path id="Ellipse_663_copy_4" data-name="Ellipse 663 copy 4" class="cls-28" d="M286,317c0,3.866,22.61,7,50.5,7s50.5-3.134,50.5-7v-6H286v6Z"/>
  <ellipse class="cls-29" cx="336.5" cy="312" rx="50.5" ry="7"/>
  <path id="Ellipse_663_copy_2" data-name="Ellipse 663 copy 2" class="cls-30" d="M367.428,345.025c1.756,0.606,2.728,1.274,2.728,1.975,0,2.761-15.068,5-33.656,5s-33.656-2.239-33.656-5c0-.621.763-1.216,2.157-1.765"/>
  <path id="Ellipse_663_copy_3-2" data-name="Ellipse 663 copy 3" class="cls-24" d="M48.452,344.468C54.275,342.991,65.034,342,77.344,342c11.709,0,22.014.9,28,2.255"/>
  <path class="cls-25" d="M39,320s10,13.713,10,27.188C49,360.205,39,373,39,373"/>
  <path id="Shape_665_copy_6-2" data-name="Shape 665 copy 6" class="cls-26" d="M39,320a64.67,64.67,0,0,1,7.214,13.633"/>
  <path id="Shape_665_copy-2" data-name="Shape 665 copy" class="cls-25" d="M56.539,317s6.923,12.419,6.923,24.623c0,11.789-6.923,23.377-6.923,23.377"/>
  <path id="Shape_665_copy_4-2" data-name="Shape 665 copy 4" class="cls-27" d="M56.539,317s6.923,12.419,6.923,24.623"/>
  <path id="Shape_665_copy_2-3" data-name="Shape 665 copy 2" class="cls-25" d="M116.209,319.95s-10.062,13.726-10.062,27.214c0,13.029,10.062,25.836,10.062,25.836"/>
  <path id="Shape_665_copy_5-2" data-name="Shape 665 copy 5" class="cls-26" d="M116.209,319.95a64.606,64.606,0,0,0-7.323,13.816"/>
  <path id="Shape_665_copy_2-4" data-name="Shape 665 copy 2" class="cls-25" d="M98.563,316.948S91.6,329.379,91.6,341.594c0,11.8,6.966,23.4,6.966,23.4"/>
  <path id="Shape_665_copy_3-2" data-name="Shape 665 copy 3" class="cls-27" d="M98.563,316.948S91.6,329.379,91.6,341.594"/>
  <path id="Ellipse_663_copy" data-name="Ellipse 663 copy" class="cls-31" d="M77.5,310c27.89,0,50.5,3.134,50.5,7s-22.61,7-50.5,7S27,320.866,27,317,49.61,310,77.5,310Zm50.5,1a2.232,2.232,0,0,1-.278.739C125.06,315.257,103.59,318,77.5,318c-26.354,0-47.994-2.8-50.3-6.368A2.133,2.133,0,0,1,27,311v5H128v-5Z"/>
  <ellipse class="cls-29" cx="77.5" cy="312" rx="50.5" ry="7"/>
  <path id="Ellipse_663_copy_2-2" data-name="Ellipse 663 copy 2" class="cls-30" d="M108.428,345.025c1.756,0.606,2.728,1.274,2.728,1.975,0,2.761-15.068,5-33.656,5s-33.656-2.239-33.656-5c0-.621.763-1.216,2.157-1.765"/>
  <path id="bg" class="cls-12" d="M384.894,183.28c0.078-.826.118-1.523,0.118-1.523s-0.385-.258-1.042-0.674l-27.808-66.077H56.838L29.03,181.083c-0.657.416-1.043,0.674-1.043,0.674s0.052,0.632.145,1.459l-0.145.345h0.185a19.666,19.666,0,0,0,.563,3.08,16.179,16.179,0,0,0,31.528-3.08h0.363a16.137,16.137,0,0,0,32.093,0h0.363a16.137,16.137,0,0,0,32.093,0h0.364a16.137,16.137,0,0,0,32.093,0H158a16.136,16.136,0,0,0,32.092,0h0.365a16.137,16.137,0,0,0,32.093,0h0.363a16.137,16.137,0,0,0,32.093,0h0.364a16.137,16.137,0,0,0,32.093,0h0.364a16.137,16.137,0,0,0,32.093,0h0.364a16.137,16.137,0,0,0,32.093,0h0.363A16.181,16.181,0,0,0,384.6,185.4a16.926,16.926,0,0,0,.265-1.84h0.145l-0.118-.281"/>
  <path id="white" class="cls-32" d="M139.783,115.006h28.851l-10.819,64.946v3.609h-0.182a16.1,16.1,0,0,1-28.669,8.291l-4-11.9,14.819-64.946M60.05,179.952l4,11.9a16.1,16.1,0,0,0,28.669-8.291H92.9v-3.609l21.638-64.946H85.688L60.05,179.952m133.828-64.946-3.606,64.946v3.609h0.182a16.137,16.137,0,0,0,32.093,0h0.181v-3.609l-3.606-64.946H193.878m50.488,0,10.819,64.946v3.609h0.182a16.1,16.1,0,0,0,28.669,8.291l4-11.9-14.819-64.946H244.366m82.945,0h-28.85L320.1,179.952v3.609h0.182a16.1,16.1,0,0,0,28.668,8.291l4-11.9-25.638-64.946M92.9,179.952H60.05l4,11.9a16.038,16.038,0,0,0,12.438,6.141h0.185a16.178,16.178,0,0,0,16.046-14.433H92.9v-3.609m64.914,0H124.964l4,11.9a16.037,16.037,0,0,0,12.437,6.141h0.185a16.178,16.178,0,0,0,16.047-14.433h0.182v-3.609m64.913,0H190.272v3.609h0.182a16.137,16.137,0,0,0,32.093,0h0.181v-3.609m65.308,0H255.185v3.609h0.182a16.178,16.178,0,0,0,16.047,14.433H271.6a16.037,16.037,0,0,0,12.437-6.141l4-11.9m64.913,0H320.1v3.609h0.182a16.177,16.177,0,0,0,16.046,14.433h0.186a16.035,16.035,0,0,0,12.436-6.141l4-11.9"/>
  <path id="Ellipse_664_copy_4" data-name="Ellipse 664 copy 4" class="cls-32" d="M353,180c0,9.941-5.835,18-15.5,18A17.755,17.755,0,0,1,320,180C320,179.535,353,179.913,353,180Zm-65,0c0,9.941-5.835,18-15.5,18-12.5,0-17.5-8.059-17.5-18C255,179.535,288,179.913,288,180Zm-65,0c0,9.941-5.835,18-15.5,18A17.755,17.755,0,0,1,190,180C190,179.535,223,179.913,223,180Zm-65,0c0,9.941-5.835,18-15.5,18A17.755,17.755,0,0,1,125,180C125,179.535,158,179.913,158,180Zm-65,0c0,9.941-5.835,18-15.5,18A17.755,17.755,0,0,1,60,180C60,179.535,93,179.913,93,180Z"/>
  <path id="shadow-2" data-name="shadow" class="cls-33" d="M271.469,197.993h0m64.913,0h0m-259.764,0h0m64.913,0h0m129.994,0h0m64.914,0h0m-259.878,0h0m64.913,0h0m-64.971,0h0m195.081,0h0m64.913,0h0m-195.081,0h0M64.05,179.952H29.506l-0.476,1.131c-0.657.416-1.043,0.674-1.043,0.674s0.052,0.632.145,1.459h0l-0.145.345h0.185a19.666,19.666,0,0,0,.563,3.08,16.179,16.179,0,0,0,31.528-3.08h0.363a16.179,16.179,0,0,0,15.862,14.432,16.038,16.038,0,0,1-12.437-6.141v-11.9m64.914,0H92.9v3.609h0.182a16.137,16.137,0,0,0,32.093,0h0.364A16.179,16.179,0,0,0,141.4,197.993a16.037,16.037,0,0,1-12.437-6.141v-11.9m61.308,0H157.815v3.609H158a16.136,16.136,0,0,0,32.092,0h0.183v-3.609m64.913,0H222.728v3.609h0.182a16.137,16.137,0,0,0,32.093,0h0.182v-3.609m64.914,0H284.036v11.9a16.037,16.037,0,0,1-12.437,6.141,16.179,16.179,0,0,0,15.861-14.432h0.364a16.137,16.137,0,0,0,32.093,0H320.1v-3.609m63.4,0H348.949v11.9a16.035,16.035,0,0,1-12.436,6.141,16.179,16.179,0,0,0,15.861-14.432h0.363A16.181,16.181,0,0,0,384.6,185.4a16.926,16.926,0,0,0,.265-1.84h0.145l-0.118-.281h0c0.078-.826.118-1.523,0.118-1.523s-0.385-.258-1.042-0.674h0l-0.476-1.131m-290.593,0H64.05v11.9a16.038,16.038,0,0,0,12.438,6.141h0.185a16.178,16.178,0,0,0,16.046-14.433H92.9v-3.609m64.914,0H128.964v11.9a16.037,16.037,0,0,0,12.437,6.141h0.185a16.178,16.178,0,0,0,16.047-14.433h0.182v-3.609m64.913,0H190.272v3.609h0.182a16.137,16.137,0,0,0,32.093,0h0.181v-3.609m61.308,0H255.185v3.609h0.182a16.178,16.178,0,0,0,16.047,14.433H271.6a16.037,16.037,0,0,0,12.437-6.141v-11.9m64.913,0H320.1v3.609h0.182a16.177,16.177,0,0,0,16.046,14.433h0.186a16.035,16.035,0,0,0,12.436-6.141v-11.9"/>
</svg>
